<?xml version="1.0" encoding="UTF-8" standalone="no"?>
<!-- Generator: Adobe Illustrator 22.0.0, SVG Export Plug-In . SVG Version: 6.00 Build 0)  -->

<svg
   version="1.1"
   id="Layer_1"
   x="0px"
   y="0px"
   viewBox="0 0 595.70001 151.8"
   xml:space="preserve"
   sodipodi:docname="escoreit-FF-02-newlast.svg"
   width="595.70001"
   height="151.8"
   inkscape:version="1.1.2 (b8e25be833, 2022-02-05)"
   inkscape:export-filename="C:\Users\Yordan\Downloads\FF (1)\FF\escoreit-FF-02-newlast.png"
   inkscape:export-xdpi="96"
   inkscape:export-ydpi="96"
   xmlns:inkscape="http://www.inkscape.org/namespaces/inkscape"
   xmlns:sodipodi="http://sodipodi.sourceforge.net/DTD/sodipodi-0.dtd"
   xmlns="http://www.w3.org/2000/svg"
   xmlns:svg="http://www.w3.org/2000/svg"><defs
   id="defs341" /><sodipodi:namedview
   id="namedview339"
   pagecolor="#ffffff"
   bordercolor="#666666"
   borderopacity="1.0"
   inkscape:pageshadow="2"
   inkscape:pageopacity="0.0"
   inkscape:pagecheckerboard="0"
   showgrid="false"
   objecttolerance="20"
   showguides="true"
   inkscape:zoom="0.88888889"
   inkscape:cx="72"
   inkscape:cy="70.875"
   inkscape:window-width="1366"
   inkscape:window-height="705"
   inkscape:window-x="-8"
   inkscape:window-y="-8"
   inkscape:window-maximized="1"
   inkscape:current-layer="Layer_1" />
<style
   type="text/css"
   id="style246">
	.st0{fill:#101D2E;}
	.st1{fill:none;}
	.st2{fill:#FFFFFF;}
	.st3{fill:#42E9FF;}
	.st4{fill:url(#SVGID_1_);}
	.st5{fill:url(#SVGID_2_);}
	.st6{fill:url(#SVGID_3_);}
	.st7{fill:url(#SVGID_4_);}
	.st8{fill:url(#SVGID_5_);}
	.st9{fill:url(#SVGID_6_);}
</style>
<g
   id="g336"
   transform="translate(-201.5,-208.2)">
	<g
   id="g330">
		<g
   id="g262">
			<path
   class="st0"
   d="m 410.2,261 c -0.5,0.8 -1,1.3 -1.5,1.6 -0.5,0.3 -1.2,0.5 -2,0.5 -0.9,0 -1.8,-0.2 -2.8,-0.7 -1,-0.5 -2.1,-1 -3.4,-1.6 -1.3,-0.6 -2.8,-1.1 -4.4,-1.6 -1.6,-0.5 -3.6,-0.7 -5.8,-0.7 -3.5,0 -6.2,0.7 -8.2,2.2 -2,1.5 -3,3.4 -3,5.8 0,1.6 0.5,2.9 1.5,4 1,1.1 2.4,2 4.1,2.8 1.7,0.8 3.6,1.5 5.8,2.2 2.1,0.6 4.3,1.3 6.6,2.1 2.2,0.8 4.4,1.6 6.6,2.6 2.1,1 4.1,2.2 5.8,3.7 1.7,1.5 3.1,3.3 4.1,5.4 1,2.1 1.5,4.6 1.5,7.6 0,3.5 -0.6,6.8 -1.9,9.8 -1.3,3 -3.2,5.6 -5.7,7.7 -2.5,2.2 -5.5,3.9 -9.2,5.1 -3.6,1.2 -7.8,1.8 -12.6,1.8 -2.5,0 -5,-0.2 -7.4,-0.7 -2.4,-0.5 -4.7,-1.1 -6.9,-1.9 -2.2,-0.8 -4.3,-1.8 -6.2,-2.9 -1.9,-1.1 -3.5,-2.3 -5,-3.6 l 4.1,-6.7 c 0.5,-0.8 1.1,-1.4 1.9,-1.9 0.7,-0.4 1.6,-0.6 2.7,-0.6 1.1,0 2.1,0.3 3.1,0.9 1,0.6 2.1,1.3 3.4,2 1.3,0.7 2.8,1.4 4.5,2 1.7,0.6 3.9,0.9 6.6,0.9 2.1,0 3.9,-0.3 5.4,-0.8 1.5,-0.5 2.7,-1.2 3.7,-2 1,-0.8 1.7,-1.8 2.1,-2.8 0.4,-1 0.7,-2.2 0.7,-3.3 0,-1.7 -0.5,-3.1 -1.5,-4.2 -1,-1.1 -2.4,-2 -4.1,-2.9 -1.7,-0.8 -3.6,-1.5 -5.8,-2.2 -2.2,-0.6 -4.4,-1.3 -6.7,-2.1 -2.3,-0.8 -4.5,-1.7 -6.7,-2.7 -2.2,-1 -4.1,-2.3 -5.8,-3.9 -1.7,-1.6 -3.1,-3.5 -4.1,-5.8 -1,-2.3 -1.5,-5.1 -1.5,-8.3 0,-3 0.6,-5.9 1.8,-8.6 1.2,-2.7 2.9,-5.1 5.3,-7.1 2.3,-2 5.2,-3.6 8.7,-4.9 3.5,-1.3 7.4,-1.8 12,-1.8 5.1,0 9.7,0.8 13.8,2.5 4.1,1.7 7.6,3.9 10.4,6.6 z"
   id="path248" />
			<path
   class="st0"
   d="m 480.7,262.2 c -0.5,0.7 -1,1.2 -1.5,1.6 -0.5,0.4 -1.2,0.6 -2.2,0.6 -0.9,0 -1.8,-0.3 -2.6,-0.8 -0.9,-0.5 -1.9,-1.2 -3.1,-1.9 -1.2,-0.7 -2.6,-1.3 -4.3,-1.9 -1.6,-0.5 -3.7,-0.8 -6.1,-0.8 -3.1,0 -5.8,0.6 -8.2,1.7 -2.3,1.1 -4.3,2.7 -5.8,4.8 -1.6,2.1 -2.7,4.6 -3.5,7.6 -0.8,3 -1.1,6.4 -1.1,10.1 0,3.9 0.4,7.4 1.3,10.4 0.8,3.1 2,5.6 3.6,7.7 1.6,2.1 3.5,3.6 5.7,4.7 2.2,1.1 4.8,1.6 7.6,1.6 2.8,0 5.1,-0.3 6.8,-1 1.7,-0.7 3.2,-1.5 4.4,-2.3 1.2,-0.8 2.2,-1.6 3.1,-2.3 0.9,-0.7 1.9,-1 3,-1 1.4,0 2.5,0.5 3.2,1.6 l 5.1,6.4 c -2,2.3 -4.1,4.2 -6.4,5.8 -2.3,1.5 -4.7,2.8 -7.1,3.7 -2.5,0.9 -5,1.6 -7.6,2 -2.6,0.4 -5.2,0.6 -7.8,0.6 -4.5,0 -8.8,-0.8 -12.8,-2.5 -4,-1.7 -7.5,-4.2 -10.5,-7.4 -3,-3.2 -5.3,-7.2 -7.1,-11.9 -1.7,-4.7 -2.6,-10 -2.6,-16.1 0,-5.4 0.8,-10.4 2.3,-15 1.5,-4.6 3.8,-8.6 6.8,-11.9 3,-3.3 6.7,-6 11.2,-7.9 4.4,-1.9 9.5,-2.9 15.3,-2.9 5.5,0 10.3,0.9 14.4,2.6 4.1,1.8 7.8,4.3 11.1,7.6 z"
   id="path250" />
			<path
   class="st0"
   d="m 528.7,245.5 c 5.5,0 10.5,0.9 14.9,2.6 4.5,1.8 8.3,4.3 11.4,7.5 3.1,3.2 5.6,7.2 7.3,11.9 1.7,4.7 2.6,9.9 2.6,15.7 0,5.8 -0.9,11.1 -2.6,15.7 -1.7,4.7 -4.1,8.7 -7.3,11.9 -3.1,3.3 -6.9,5.8 -11.4,7.6 -4.5,1.8 -9.4,2.6 -14.9,2.6 -5.5,0 -10.5,-0.9 -14.9,-2.6 -4.5,-1.8 -8.3,-4.3 -11.5,-7.6 -3.2,-3.3 -5.6,-7.3 -7.4,-11.9 -1.7,-4.7 -2.6,-9.9 -2.6,-15.7 0,-5.8 0.9,-11 2.6,-15.7 1.7,-4.7 4.2,-8.6 7.4,-11.9 3.2,-3.2 7,-5.7 11.5,-7.5 4.4,-1.7 9.4,-2.6 14.9,-2.6 z m 0,62 c 6.1,0 10.6,-2 13.6,-6.2 2.9,-4.1 4.4,-10.1 4.4,-18 0,-7.9 -1.5,-13.9 -4.4,-18.1 -2.9,-4.1 -7.5,-6.2 -13.6,-6.2 -6.2,0 -10.8,2.1 -13.7,6.3 -3,4.2 -4.4,10.2 -4.4,18.1 0,7.9 1.5,13.9 4.4,18 2.9,4.1 7.5,6.1 13.7,6.1 z"
   id="path252" />
			<path
   class="st0"
   d="m 578.7,320.1 v -73.4 h 10.4 c 1.8,0 3.1,0.3 3.8,1 0.7,0.7 1.2,1.8 1.4,3.4 l 1.1,8.9 c 2.6,-4.5 5.7,-8.1 9.2,-10.7 3.5,-2.6 7.5,-3.9 11.9,-3.9 3.6,0 6.6,0.8 9,2.5 l -2.3,13.2 c -0.1,0.9 -0.5,1.5 -0.9,1.8 -0.5,0.4 -1.1,0.5 -1.9,0.5 -0.7,0 -1.7,-0.2 -2.9,-0.5 -1.2,-0.3 -2.9,-0.5 -4.9,-0.5 -3.7,0 -6.8,1 -9.4,3 -2.6,2 -4.8,5 -6.7,8.9 V 320 h -17.8 z"
   id="path254" />
			<path
   class="st0"
   d="m 667.4,245.5 c 4.6,0 8.9,0.7 12.8,2.2 3.9,1.5 7.2,3.6 10,6.5 2.8,2.8 5,6.3 6.6,10.4 1.6,4.1 2.4,8.8 2.4,14.1 0,1.3 -0.1,2.4 -0.2,3.3 -0.1,0.9 -0.3,1.6 -0.6,2.1 -0.3,0.5 -0.7,0.9 -1.3,1.1 -0.5,0.2 -1.2,0.3 -2,0.3 h -45.3 c 0.5,7.5 2.5,13.1 6.1,16.6 3.5,3.5 8.2,5.3 14,5.3 2.9,0 5.3,-0.3 7.4,-1 2.1,-0.7 3.9,-1.4 5.4,-2.2 1.5,-0.8 2.9,-1.5 4.1,-2.2 1.2,-0.7 2.3,-1 3.4,-1 0.7,0 1.3,0.1 1.9,0.4 0.5,0.3 1,0.7 1.4,1.2 l 5.1,6.4 c -2,2.3 -4.1,4.2 -6.6,5.8 -2.4,1.5 -5,2.8 -7.6,3.7 -2.6,0.9 -5.3,1.6 -8.1,2 -2.7,0.4 -5.4,0.6 -8,0.6 -5.1,0 -9.8,-0.8 -14.2,-2.5 -4.4,-1.7 -8.2,-4.2 -11.4,-7.5 -3.2,-3.3 -5.8,-7.4 -7.7,-12.3 -1.9,-4.9 -2.8,-10.5 -2.8,-17 0,-5 0.8,-9.7 2.4,-14.1 1.6,-4.4 3.9,-8.2 7,-11.5 3,-3.3 6.7,-5.9 11.1,-7.8 4.3,-1.9 9.3,-2.9 14.7,-2.9 z m 0.4,12.7 c -5.1,0 -9.2,1.5 -12.1,4.4 -2.9,2.9 -4.8,7 -5.6,12.4 h 33.2 c 0,-2.3 -0.3,-4.4 -0.9,-6.5 -0.6,-2 -1.6,-3.8 -2.9,-5.3 -1.3,-1.5 -2.9,-2.7 -4.9,-3.6 -1.9,-1 -4.2,-1.4 -6.8,-1.4 z"
   id="path256" />
			<path
   class="st0"
   d="m 735,225.3 c 0,1.5 -0.3,3 -0.9,4.3 -0.6,1.3 -1.4,2.5 -2.5,3.5 -1,1 -2.2,1.8 -3.6,2.4 -1.4,0.6 -2.9,0.9 -4.4,0.9 -1.5,0 -3,-0.3 -4.3,-0.9 -1.4,-0.6 -2.5,-1.4 -3.5,-2.4 -1,-1 -1.8,-2.2 -2.4,-3.5 -0.6,-1.3 -0.9,-2.8 -0.9,-4.3 0,-1.6 0.3,-3.1 0.9,-4.4 0.6,-1.4 1.4,-2.6 2.4,-3.6 1,-1 2.2,-1.8 3.5,-2.4 1.4,-0.6 2.8,-0.9 4.3,-0.9 1.6,0 3.1,0.3 4.4,0.9 1.4,0.6 2.6,1.4 3.6,2.4 1,1 1.8,2.2 2.5,3.6 0.6,1.3 0.9,2.8 0.9,4.4 z m -2.6,21.4 v 73.4 h -17.7 v -73.4 z"
   id="path258" />
			<path
   class="st0"
   d="m 776.4,321.2 c -6.3,0 -11.2,-1.8 -14.7,-5.4 -3.4,-3.6 -5.1,-8.6 -5.1,-14.9 v -41 h -7.4 c -1,0 -1.8,-0.3 -2.5,-0.9 -0.7,-0.6 -1,-1.5 -1,-2.8 v -7 l 11.8,-1.9 3.7,-20 c 0.2,-1 0.6,-1.7 1.3,-2.2 0.7,-0.5 1.6,-0.8 2.6,-0.8 h 9.2 v 23.1 h 19.3 V 260 h -19.3 v 39.8 c 0,2.3 0.6,4.1 1.7,5.4 1.1,1.3 2.7,1.9 4.6,1.9 1.1,0 2,-0.1 2.8,-0.4 0.7,-0.3 1.4,-0.5 1.9,-0.8 0.5,-0.3 1,-0.6 1.5,-0.8 0.4,-0.3 0.9,-0.4 1.3,-0.4 0.5,0 1,0.1 1.3,0.4 0.3,0.3 0.7,0.7 1.1,1.2 l 5.3,8.6 c -2.6,2.1 -5.5,3.8 -8.9,4.9 -3.4,0.9 -6.9,1.4 -10.5,1.4 z"
   id="path260" />
		</g>
		<g
   id="g328">
			<path
   class="st0"
   d="m 364.9,355.3 h -3.7 v -20 h 3.7 z"
   id="path264" />
			<path
   class="st0"
   d="m 369.2,355.3 v -14.2 h 2.1 c 0.4,0 0.7,0.2 0.9,0.6 l 0.2,1.1 c 0.3,-0.3 0.6,-0.6 0.9,-0.8 0.3,-0.2 0.7,-0.4 1,-0.6 0.4,-0.2 0.7,-0.3 1.1,-0.4 0.4,-0.1 0.8,-0.1 1.3,-0.1 0.8,0 1.5,0.1 2.1,0.4 0.6,0.3 1.1,0.6 1.5,1.1 0.4,0.5 0.7,1 0.9,1.7 0.2,0.7 0.3,1.4 0.3,2.2 v 9 h -3.4 v -9 c 0,-0.9 -0.2,-1.5 -0.6,-2 -0.4,-0.5 -1,-0.7 -1.8,-0.7 -0.6,0 -1.1,0.1 -1.7,0.4 -0.6,0.3 -1,0.6 -1.5,1.1 v 10.3 h -3.3 z"
   id="path266" />
			<path
   class="st0"
   d="m 385,355.3 v -14.2 h 2.1 c 0.4,0 0.7,0.2 0.9,0.6 l 0.2,1.1 c 0.3,-0.3 0.6,-0.6 0.9,-0.8 0.3,-0.2 0.7,-0.4 1,-0.6 0.4,-0.2 0.7,-0.3 1.1,-0.4 0.4,-0.1 0.8,-0.1 1.3,-0.1 0.8,0 1.5,0.1 2.1,0.4 0.6,0.3 1.1,0.6 1.5,1.1 0.4,0.5 0.7,1 0.9,1.7 0.2,0.7 0.3,1.4 0.3,2.2 v 9 h -3.4 v -9 c 0,-0.9 -0.2,-1.5 -0.6,-2 -0.4,-0.5 -1,-0.7 -1.8,-0.7 -0.6,0 -1.1,0.1 -1.7,0.4 -0.6,0.3 -1,0.6 -1.5,1.1 v 10.3 H 385 Z"
   id="path268" />
			<path
   class="st0"
   d="m 406.8,340.9 c 1.1,0 2,0.2 2.9,0.5 0.9,0.3 1.6,0.8 2.2,1.5 0.6,0.6 1.1,1.4 1.4,2.3 0.3,0.9 0.5,1.9 0.5,3 0,1.1 -0.2,2.1 -0.5,3 -0.3,0.9 -0.8,1.7 -1.4,2.3 -0.6,0.6 -1.3,1.1 -2.2,1.5 -0.9,0.3 -1.8,0.5 -2.9,0.5 -1.1,0 -2,-0.2 -2.9,-0.5 -0.9,-0.3 -1.6,-0.8 -2.2,-1.5 -0.6,-0.7 -1.1,-1.4 -1.4,-2.3 -0.3,-0.9 -0.5,-1.9 -0.5,-3 0,-1.1 0.2,-2.1 0.5,-3 0.3,-0.9 0.8,-1.7 1.4,-2.3 0.6,-0.6 1.4,-1.1 2.2,-1.5 0.8,-0.4 1.8,-0.5 2.9,-0.5 z m 0,12 c 1.2,0 2.1,-0.4 2.6,-1.2 0.5,-0.8 0.9,-2 0.9,-3.5 0,-1.5 -0.3,-2.7 -0.9,-3.5 -0.6,-0.8 -1.4,-1.2 -2.6,-1.2 -1.2,0 -2.1,0.4 -2.7,1.2 -0.6,0.8 -0.9,2 -0.9,3.5 0,1.5 0.3,2.7 0.9,3.5 0.6,0.8 1.5,1.2 2.7,1.2 z"
   id="path270" />
			<path
   class="st0"
   d="m 423.5,355.3 h -3.1 l -5.6,-14.2 h 2.8 c 0.3,0 0.5,0.1 0.6,0.2 0.2,0.1 0.3,0.3 0.4,0.5 l 2.7,7.6 c 0.2,0.4 0.3,0.9 0.4,1.3 0.1,0.4 0.2,0.8 0.3,1.3 0.1,-0.4 0.2,-0.8 0.3,-1.3 0.1,-0.4 0.2,-0.9 0.4,-1.3 l 2.8,-7.6 c 0.1,-0.2 0.2,-0.3 0.3,-0.5 0.2,-0.1 0.4,-0.2 0.6,-0.2 h 2.7 z"
   id="path272" />
			<path
   class="st0"
   d="m 442.3,355.3 h -1.5 c -0.3,0 -0.6,0 -0.8,-0.1 -0.2,-0.1 -0.3,-0.3 -0.4,-0.6 l -0.3,-1 c -0.4,0.3 -0.7,0.6 -1.1,0.9 -0.3,0.2 -0.7,0.4 -1.1,0.6 -0.4,0.2 -0.8,0.3 -1.2,0.4 -0.4,0.1 -0.9,0.1 -1.4,0.1 -0.6,0 -1.2,-0.1 -1.7,-0.2 -0.5,-0.2 -0.9,-0.4 -1.3,-0.7 -0.4,-0.3 -0.6,-0.7 -0.8,-1.2 -0.2,-0.5 -0.3,-1 -0.3,-1.7 0,-0.5 0.1,-1.1 0.4,-1.6 0.3,-0.5 0.7,-1 1.4,-1.4 0.7,-0.4 1.5,-0.8 2.6,-1 1.1,-0.3 2.4,-0.4 4.1,-0.4 v -0.8 c 0,-1 -0.2,-1.7 -0.6,-2.1 -0.4,-0.4 -1,-0.7 -1.8,-0.7 -0.6,0 -1,0.1 -1.4,0.2 -0.4,0.1 -0.7,0.3 -1,0.4 -0.3,0.2 -0.5,0.3 -0.8,0.4 -0.2,0.1 -0.5,0.2 -0.8,0.2 -0.2,0 -0.4,-0.1 -0.6,-0.2 -0.2,-0.1 -0.3,-0.3 -0.4,-0.4 l -0.6,-1.1 c 1.6,-1.5 3.6,-2.2 5.9,-2.2 0.8,0 1.6,0.1 2.2,0.4 0.7,0.3 1.2,0.7 1.7,1.1 0.5,0.5 0.8,1.1 1,1.7 0.2,0.7 0.4,1.4 0.4,2.2 v 8.8 z m -6.6,-2.1 c 0.3,0 0.7,0 1,-0.1 0.3,-0.1 0.6,-0.2 0.8,-0.3 0.3,-0.1 0.5,-0.3 0.8,-0.5 0.2,-0.2 0.5,-0.4 0.7,-0.7 v -2.4 c -1,0 -1.8,0.1 -2.5,0.2 -0.7,0.1 -1.2,0.3 -1.6,0.5 -0.4,0.2 -0.7,0.4 -0.9,0.7 -0.2,0.3 -0.3,0.5 -0.3,0.8 0,0.6 0.2,1 0.5,1.3 0.4,0.4 0.9,0.5 1.5,0.5 z"
   id="path274" />
			<path
   class="st0"
   d="m 450.3,355.5 c -1.2,0 -2.2,-0.3 -2.8,-1 -0.7,-0.7 -1,-1.7 -1,-2.9 v -7.9 h -1.4 c -0.2,0 -0.3,-0.1 -0.5,-0.2 -0.1,-0.1 -0.2,-0.3 -0.2,-0.5 v -1.4 l 2.3,-0.4 0.7,-3.9 c 0,-0.2 0.1,-0.3 0.3,-0.4 0.1,-0.1 0.3,-0.2 0.5,-0.2 h 1.8 v 4.5 h 3.7 v 2.4 H 450 v 7.7 c 0,0.4 0.1,0.8 0.3,1 0.2,0.2 0.5,0.4 0.9,0.4 0.2,0 0.4,0 0.5,-0.1 0.1,-0.1 0.3,-0.1 0.4,-0.2 0.1,-0.1 0.2,-0.1 0.3,-0.2 0.1,-0.1 0.2,-0.1 0.2,-0.1 0.1,0 0.2,0 0.2,0.1 0.1,0.1 0.1,0.1 0.2,0.2 l 1,1.7 c -0.5,0.4 -1.1,0.7 -1.7,0.9 -0.6,0.4 -1.3,0.5 -2,0.5 z"
   id="path276" />
			<path
   class="st0"
   d="m 460.5,337 c 0,0.3 -0.1,0.6 -0.2,0.8 -0.1,0.3 -0.3,0.5 -0.5,0.7 -0.2,0.2 -0.4,0.3 -0.7,0.5 -0.3,0.1 -0.6,0.2 -0.9,0.2 -0.3,0 -0.6,-0.1 -0.8,-0.2 -0.3,-0.1 -0.5,-0.3 -0.7,-0.5 -0.2,-0.2 -0.3,-0.4 -0.5,-0.7 -0.2,-0.3 -0.2,-0.5 -0.2,-0.8 0,-0.3 0.1,-0.6 0.2,-0.9 0.1,-0.3 0.3,-0.5 0.5,-0.7 0.2,-0.2 0.4,-0.3 0.7,-0.5 0.3,-0.1 0.5,-0.2 0.8,-0.2 0.3,0 0.6,0.1 0.9,0.2 0.3,0.1 0.5,0.3 0.7,0.5 0.2,0.2 0.4,0.4 0.5,0.7 0.2,0.3 0.2,0.6 0.2,0.9 z m -0.5,4.1 v 14.2 h -3.4 v -14.2 z"
   id="path278" />
			<path
   class="st0"
   d="m 471,355.3 h -3.1 l -5.6,-14.2 h 2.8 c 0.3,0 0.5,0.1 0.6,0.2 0.2,0.1 0.3,0.3 0.4,0.5 l 2.7,7.6 c 0.2,0.4 0.3,0.9 0.4,1.3 0.1,0.4 0.2,0.8 0.3,1.3 0.1,-0.4 0.2,-0.8 0.3,-1.3 0.1,-0.4 0.2,-0.9 0.4,-1.3 l 2.8,-7.6 c 0.1,-0.2 0.2,-0.3 0.3,-0.5 0.2,-0.1 0.4,-0.2 0.6,-0.2 h 2.7 z"
   id="path280" />
			<path
   class="st0"
   d="m 484.5,340.9 c 0.9,0 1.7,0.1 2.5,0.4 0.8,0.3 1.4,0.7 1.9,1.3 0.5,0.6 1,1.2 1.3,2 0.3,0.8 0.5,1.7 0.5,2.7 0,0.3 0,0.5 0,0.6 0,0.2 -0.1,0.3 -0.1,0.4 -0.1,0.1 -0.1,0.2 -0.2,0.2 -0.1,0 -0.2,0.1 -0.4,0.1 h -8.8 c 0.1,1.5 0.5,2.5 1.2,3.2 0.7,0.7 1.6,1 2.7,1 0.6,0 1,-0.1 1.4,-0.2 0.4,-0.1 0.8,-0.3 1.1,-0.4 0.3,-0.2 0.6,-0.3 0.8,-0.4 0.2,-0.1 0.4,-0.2 0.7,-0.2 0.1,0 0.3,0 0.4,0.1 0.1,0.1 0.2,0.1 0.3,0.2 l 1,1.2 c -0.4,0.4 -0.8,0.8 -1.3,1.1 -0.5,0.3 -1,0.5 -1.5,0.7 -0.5,0.2 -1,0.3 -1.6,0.4 -0.5,0.1 -1,0.1 -1.5,0.1 -1,0 -1.9,-0.2 -2.8,-0.5 -0.8,-0.3 -1.6,-0.8 -2.2,-1.5 -0.6,-0.6 -1.1,-1.4 -1.5,-2.4 -0.4,-0.9 -0.5,-2 -0.5,-3.3 0,-1 0.2,-1.9 0.5,-2.7 0.3,-0.9 0.8,-1.6 1.3,-2.2 0.6,-0.6 1.3,-1.1 2.1,-1.5 0.7,-0.2 1.6,-0.4 2.7,-0.4 z m 0.1,2.4 c -1,0 -1.8,0.3 -2.3,0.8 -0.6,0.6 -0.9,1.4 -1.1,2.4 h 6.4 c 0,-0.4 -0.1,-0.9 -0.2,-1.3 -0.1,-0.4 -0.3,-0.7 -0.6,-1 -0.2,-0.3 -0.6,-0.5 -0.9,-0.7 -0.4,-0.1 -0.8,-0.2 -1.3,-0.2 z"
   id="path282" />
			<path
   class="st0"
   d="m 507.2,343.9 c -0.1,0.1 -0.2,0.3 -0.3,0.3 -0.1,0 -0.2,0.1 -0.4,0.1 -0.2,0 -0.3,0 -0.5,-0.1 -0.2,-0.1 -0.4,-0.2 -0.7,-0.3 -0.3,-0.1 -0.5,-0.2 -0.9,-0.3 -0.3,-0.1 -0.7,-0.1 -1.1,-0.1 -0.7,0 -1.2,0.1 -1.6,0.4 -0.4,0.3 -0.6,0.7 -0.6,1.1 0,0.3 0.1,0.6 0.3,0.8 0.2,0.2 0.5,0.4 0.8,0.5 0.3,0.2 0.7,0.3 1.1,0.4 0.4,0.1 0.8,0.3 1.3,0.4 0.4,0.1 0.9,0.3 1.3,0.5 0.4,0.2 0.8,0.4 1.1,0.7 0.3,0.3 0.6,0.6 0.8,1 0.2,0.4 0.3,0.9 0.3,1.5 0,0.7 -0.1,1.3 -0.4,1.9 -0.3,0.6 -0.6,1.1 -1.1,1.5 -0.5,0.4 -1.1,0.7 -1.8,1 -0.7,0.2 -1.5,0.4 -2.4,0.4 -0.5,0 -1,0 -1.4,-0.1 -0.5,-0.1 -0.9,-0.2 -1.3,-0.4 -0.4,-0.2 -0.8,-0.3 -1.2,-0.6 -0.4,-0.2 -0.7,-0.4 -1,-0.7 l 0.8,-1.3 c 0.1,-0.2 0.2,-0.3 0.4,-0.4 0.1,-0.1 0.3,-0.1 0.5,-0.1 0.2,0 0.4,0.1 0.6,0.2 0.2,0.1 0.4,0.2 0.7,0.4 0.2,0.1 0.5,0.3 0.9,0.4 0.3,0.1 0.8,0.2 1.3,0.2 0.4,0 0.8,0 1,-0.1 0.3,-0.1 0.5,-0.2 0.7,-0.4 0.2,-0.2 0.3,-0.3 0.4,-0.5 0.1,-0.2 0.1,-0.4 0.1,-0.6 0,-0.3 -0.1,-0.6 -0.3,-0.8 -0.2,-0.2 -0.5,-0.4 -0.8,-0.6 -0.3,-0.2 -0.7,-0.3 -1.1,-0.4 -0.4,-0.1 -0.8,-0.3 -1.3,-0.4 -0.4,-0.1 -0.9,-0.3 -1.3,-0.5 -0.4,-0.2 -0.8,-0.4 -1.1,-0.8 -0.3,-0.3 -0.6,-0.7 -0.8,-1.1 -0.2,-0.4 -0.3,-1 -0.3,-1.6 0,-0.6 0.1,-1.1 0.3,-1.7 0.2,-0.5 0.6,-1 1,-1.4 0.4,-0.4 1,-0.7 1.7,-0.9 0.7,-0.2 1.4,-0.4 2.3,-0.4 1,0 1.9,0.2 2.7,0.5 0.8,0.3 1.5,0.7 2,1.3 z"
   id="path284" />
			<path
   class="st0"
   d="m 514.3,334.8 v 11.8 h 0.6 c 0.2,0 0.4,0 0.5,-0.1 0.1,-0.1 0.3,-0.2 0.4,-0.4 l 3.5,-4.4 c 0.2,-0.2 0.3,-0.3 0.5,-0.4 0.2,-0.1 0.4,-0.2 0.7,-0.2 h 3.1 l -4.4,5.3 c -0.2,0.2 -0.3,0.4 -0.5,0.5 -0.2,0.2 -0.3,0.3 -0.5,0.4 0.2,0.1 0.4,0.3 0.5,0.5 0.1,0.2 0.3,0.4 0.4,0.6 l 4.7,6.9 h -3.1 c -0.3,0 -0.5,0 -0.7,-0.1 -0.2,-0.1 -0.4,-0.2 -0.5,-0.5 l -3.6,-5.4 c -0.1,-0.2 -0.3,-0.4 -0.4,-0.4 -0.1,-0.1 -0.3,-0.1 -0.6,-0.1 h -0.8 v 6.5 h -3.4 v -20.6 h 3.6 z"
   id="path286" />
			<path
   class="st0"
   d="m 530.3,337 c 0,0.3 -0.1,0.6 -0.2,0.8 -0.1,0.2 -0.3,0.5 -0.5,0.7 -0.2,0.2 -0.4,0.3 -0.7,0.5 -0.3,0.1 -0.6,0.2 -0.9,0.2 -0.3,0 -0.6,-0.1 -0.8,-0.2 -0.3,-0.1 -0.5,-0.3 -0.7,-0.5 -0.2,-0.2 -0.3,-0.4 -0.5,-0.7 -0.2,-0.3 -0.2,-0.5 -0.2,-0.8 0,-0.3 0.1,-0.6 0.2,-0.9 0.1,-0.3 0.3,-0.5 0.5,-0.7 0.2,-0.2 0.4,-0.3 0.7,-0.5 0.3,-0.1 0.5,-0.2 0.8,-0.2 0.3,0 0.6,0.1 0.9,0.2 0.3,0.1 0.5,0.3 0.7,0.5 0.2,0.2 0.4,0.4 0.5,0.7 0.1,0.3 0.2,0.6 0.2,0.9 z m -0.6,4.1 v 14.2 h -3.4 v -14.2 z"
   id="path288" />
			<path
   class="st0"
   d="m 537.2,334.8 v 20.6 h -3.4 v -20.6 z"
   id="path290" />
			<path
   class="st0"
   d="m 544.7,334.8 v 20.6 h -3.4 v -20.6 z"
   id="path292" />
			<path
   class="st0"
   d="m 557,343.9 c -0.1,0.1 -0.2,0.3 -0.3,0.3 -0.1,0 -0.2,0.1 -0.4,0.1 -0.2,0 -0.3,0 -0.5,-0.1 -0.2,-0.1 -0.4,-0.2 -0.7,-0.3 -0.3,-0.1 -0.5,-0.2 -0.9,-0.3 -0.3,-0.1 -0.7,-0.1 -1.1,-0.1 -0.7,0 -1.2,0.1 -1.6,0.4 -0.4,0.3 -0.6,0.7 -0.6,1.1 0,0.3 0.1,0.6 0.3,0.8 0.2,0.2 0.5,0.4 0.8,0.5 0.3,0.2 0.7,0.3 1.1,0.4 0.4,0.1 0.8,0.3 1.3,0.4 0.4,0.1 0.9,0.3 1.3,0.5 0.4,0.2 0.8,0.4 1.1,0.7 0.3,0.3 0.6,0.6 0.8,1 0.2,0.4 0.3,0.9 0.3,1.5 0,0.7 -0.1,1.3 -0.4,1.9 -0.3,0.6 -0.6,1.1 -1.1,1.5 -0.5,0.4 -1.1,0.7 -1.8,1 -0.7,0.2 -1.5,0.4 -2.4,0.4 -0.5,0 -1,0 -1.4,-0.1 -0.5,-0.1 -0.9,-0.2 -1.3,-0.4 -0.4,-0.2 -0.8,-0.3 -1.2,-0.6 -0.4,-0.2 -0.7,-0.4 -1,-0.7 l 0.8,-1.3 c 0.1,-0.2 0.2,-0.3 0.4,-0.4 0.1,-0.1 0.3,-0.1 0.5,-0.1 0.2,0 0.4,0.1 0.6,0.2 0.2,0.1 0.4,0.2 0.7,0.4 0.2,0.1 0.5,0.3 0.9,0.4 0.3,0.1 0.8,0.2 1.3,0.2 0.4,0 0.8,0 1,-0.1 0.3,-0.1 0.5,-0.2 0.7,-0.4 0.2,-0.2 0.3,-0.3 0.4,-0.5 0.1,-0.2 0.1,-0.4 0.1,-0.6 0,-0.3 -0.1,-0.6 -0.3,-0.8 -0.2,-0.2 -0.5,-0.4 -0.8,-0.6 -0.3,-0.2 -0.7,-0.3 -1.1,-0.4 -0.4,-0.1 -0.8,-0.3 -1.3,-0.4 -0.4,-0.1 -0.9,-0.3 -1.3,-0.5 -0.4,-0.2 -0.8,-0.4 -1.1,-0.8 -0.3,-0.4 -0.6,-0.7 -0.8,-1.1 -0.2,-0.4 -0.3,-1 -0.3,-1.6 0,-0.6 0.1,-1.1 0.3,-1.7 0.2,-0.5 0.6,-1 1,-1.4 0.4,-0.4 1,-0.7 1.7,-0.9 0.7,-0.2 1.4,-0.4 2.3,-0.4 1,0 1.9,0.2 2.7,0.5 0.8,0.3 1.5,0.7 2,1.3 z"
   id="path294" />
			<path
   class="st0"
   d="m 570.7,355.5 c -1.2,0 -2.2,-0.3 -2.8,-1 -0.7,-0.7 -1,-1.7 -1,-2.9 v -7.9 h -1.4 c -0.2,0 -0.3,-0.1 -0.5,-0.2 -0.1,-0.1 -0.2,-0.3 -0.2,-0.5 v -1.4 l 2.3,-0.4 0.7,-3.9 c 0,-0.2 0.1,-0.3 0.3,-0.4 0.2,-0.1 0.3,-0.2 0.5,-0.2 h 1.8 v 4.5 h 3.7 v 2.4 h -3.7 v 7.7 c 0,0.4 0.1,0.8 0.3,1 0.2,0.2 0.5,0.4 0.9,0.4 0.2,0 0.4,0 0.5,-0.1 0.1,-0.1 0.3,-0.1 0.4,-0.2 0.1,-0.1 0.2,-0.1 0.3,-0.2 0.1,-0.1 0.2,-0.1 0.2,-0.1 0.1,0 0.2,0 0.2,0.1 0.1,0.1 0.1,0.1 0.2,0.2 l 1,1.7 c -0.5,0.4 -1.1,0.7 -1.7,0.9 -0.7,0.4 -1.3,0.5 -2,0.5 z"
   id="path296" />
			<path
   class="st0"
   d="m 582.6,340.9 c 0.9,0 1.7,0.1 2.5,0.4 0.8,0.3 1.4,0.7 1.9,1.3 0.5,0.5 1,1.2 1.3,2 0.3,0.8 0.5,1.7 0.5,2.7 0,0.3 0,0.5 0,0.6 0,0.2 -0.1,0.3 -0.1,0.4 -0.1,0.1 -0.1,0.2 -0.2,0.2 -0.1,0 -0.2,0.1 -0.4,0.1 h -8.8 c 0.1,1.5 0.5,2.5 1.2,3.2 0.7,0.7 1.6,1 2.7,1 0.6,0 1,-0.1 1.4,-0.2 0.4,-0.1 0.8,-0.3 1.1,-0.4 0.3,-0.1 0.6,-0.3 0.8,-0.4 0.2,-0.1 0.4,-0.2 0.7,-0.2 0.1,0 0.3,0 0.4,0.1 0.1,0.1 0.2,0.1 0.3,0.2 l 1,1.2 c -0.4,0.4 -0.8,0.8 -1.3,1.1 -0.5,0.3 -1,0.5 -1.5,0.7 -0.5,0.2 -1,0.3 -1.6,0.4 -0.6,0.1 -1,0.1 -1.5,0.1 -1,0 -1.9,-0.2 -2.8,-0.5 -0.9,-0.3 -1.6,-0.8 -2.2,-1.5 -0.6,-0.6 -1.1,-1.4 -1.5,-2.4 -0.4,-1 -0.5,-2 -0.5,-3.3 0,-1 0.2,-1.9 0.5,-2.7 0.3,-0.8 0.8,-1.6 1.3,-2.2 0.5,-0.6 1.3,-1.1 2.1,-1.5 0.7,-0.2 1.6,-0.4 2.7,-0.4 z m 0.1,2.4 c -1,0 -1.8,0.3 -2.3,0.8 -0.6,0.6 -0.9,1.4 -1.1,2.4 h 6.4 c 0,-0.4 -0.1,-0.9 -0.2,-1.3 -0.1,-0.4 -0.3,-0.7 -0.6,-1 -0.2,-0.3 -0.6,-0.5 -0.9,-0.7 -0.4,-0.1 -0.8,-0.2 -1.3,-0.2 z"
   id="path298" />
			<path
   class="st0"
   d="m 599.9,343.9 c -0.1,0.1 -0.2,0.3 -0.3,0.3 -0.1,0 -0.2,0.1 -0.4,0.1 -0.2,0 -0.3,0 -0.5,-0.1 -0.2,-0.1 -0.4,-0.2 -0.7,-0.3 -0.3,-0.1 -0.5,-0.2 -0.9,-0.3 -0.3,-0.1 -0.7,-0.1 -1.1,-0.1 -0.7,0 -1.2,0.1 -1.6,0.4 -0.4,0.3 -0.6,0.7 -0.6,1.1 0,0.3 0.1,0.6 0.3,0.8 0.2,0.2 0.5,0.4 0.8,0.5 0.3,0.2 0.7,0.3 1.1,0.4 0.4,0.1 0.8,0.3 1.3,0.4 0.4,0.1 0.9,0.3 1.3,0.5 0.4,0.2 0.8,0.4 1.1,0.7 0.3,0.3 0.6,0.6 0.8,1 0.2,0.4 0.3,0.9 0.3,1.5 0,0.7 -0.1,1.3 -0.4,1.9 -0.3,0.6 -0.6,1.1 -1.1,1.5 -0.5,0.4 -1.1,0.7 -1.8,1 -0.7,0.2 -1.5,0.4 -2.4,0.4 -0.5,0 -1,0 -1.4,-0.1 -0.5,-0.1 -0.9,-0.2 -1.3,-0.4 -0.4,-0.2 -0.8,-0.3 -1.2,-0.6 -0.4,-0.2 -0.7,-0.4 -1,-0.7 l 0.8,-1.3 c 0.1,-0.2 0.2,-0.3 0.4,-0.4 0.1,-0.1 0.3,-0.1 0.5,-0.1 0.2,0 0.4,0.1 0.6,0.2 0.2,0.1 0.4,0.2 0.7,0.4 0.2,0.1 0.5,0.3 0.9,0.4 0.3,0.1 0.8,0.2 1.3,0.2 0.4,0 0.8,0 1,-0.1 0.3,-0.1 0.5,-0.2 0.7,-0.4 0.2,-0.2 0.3,-0.3 0.4,-0.5 0.1,-0.2 0.1,-0.4 0.1,-0.6 0,-0.3 -0.1,-0.6 -0.3,-0.8 -0.2,-0.2 -0.5,-0.4 -0.8,-0.6 -0.3,-0.2 -0.7,-0.3 -1.1,-0.4 -0.4,-0.1 -0.8,-0.3 -1.3,-0.4 -0.4,-0.1 -0.9,-0.3 -1.3,-0.5 -0.4,-0.2 -0.8,-0.4 -1.1,-0.8 -0.3,-0.4 -0.6,-0.7 -0.8,-1.1 -0.2,-0.4 -0.3,-1 -0.3,-1.6 0,-0.6 0.1,-1.1 0.3,-1.7 0.2,-0.5 0.6,-1 1,-1.4 0.4,-0.4 1,-0.7 1.7,-0.9 0.7,-0.2 1.4,-0.4 2.3,-0.4 1,0 1.9,0.2 2.7,0.5 0.8,0.3 1.5,0.7 2,1.3 z"
   id="path300" />
			<path
   class="st0"
   d="m 608.3,355.5 c -1.2,0 -2.2,-0.3 -2.8,-1 -0.7,-0.7 -1,-1.7 -1,-2.9 v -7.9 H 603 c -0.2,0 -0.3,-0.1 -0.5,-0.2 -0.1,-0.1 -0.2,-0.3 -0.2,-0.5 v -1.4 l 2.3,-0.4 0.7,-3.9 c 0,-0.2 0.1,-0.3 0.3,-0.4 0.2,-0.1 0.3,-0.2 0.5,-0.2 h 1.8 v 4.5 h 3.7 v 2.4 h -3.7 v 7.7 c 0,0.4 0.1,0.8 0.3,1 0.2,0.2 0.5,0.4 0.9,0.4 0.2,0 0.4,0 0.5,-0.1 0.1,-0.1 0.3,-0.1 0.4,-0.2 0.1,-0.1 0.2,-0.1 0.3,-0.2 0.1,-0.1 0.2,-0.1 0.2,-0.1 0.1,0 0.2,0 0.2,0.1 0.1,0.1 0.1,0.1 0.2,0.2 l 1,1.7 c -0.5,0.4 -1.1,0.7 -1.7,0.9 -0.6,0.4 -1.2,0.5 -1.9,0.5 z"
   id="path302" />
			<path
   class="st0"
   d="m 618.5,337 c 0,0.3 -0.1,0.6 -0.2,0.8 -0.1,0.2 -0.3,0.5 -0.5,0.7 -0.2,0.2 -0.4,0.3 -0.7,0.5 -0.3,0.1 -0.6,0.2 -0.9,0.2 -0.3,0 -0.6,-0.1 -0.8,-0.2 -0.3,-0.1 -0.5,-0.3 -0.7,-0.5 -0.2,-0.2 -0.3,-0.4 -0.5,-0.7 -0.2,-0.3 -0.2,-0.5 -0.2,-0.8 0,-0.3 0.1,-0.6 0.2,-0.9 0.1,-0.3 0.3,-0.5 0.5,-0.7 0.2,-0.2 0.4,-0.3 0.7,-0.5 0.3,-0.1 0.5,-0.2 0.8,-0.2 0.3,0 0.6,0.1 0.9,0.2 0.3,0.1 0.5,0.3 0.7,0.5 0.2,0.2 0.4,0.4 0.5,0.7 0.1,0.3 0.2,0.6 0.2,0.9 z m -0.5,4.1 v 14.2 h -3.4 v -14.2 z"
   id="path304" />
			<path
   class="st0"
   d="m 621.8,355.3 v -14.2 h 2.1 c 0.4,0 0.7,0.2 0.9,0.6 l 0.2,1.1 c 0.3,-0.3 0.6,-0.6 0.9,-0.8 0.3,-0.2 0.7,-0.4 1,-0.6 0.4,-0.2 0.7,-0.3 1.1,-0.4 0.4,-0.1 0.8,-0.1 1.3,-0.1 0.8,0 1.5,0.1 2.1,0.4 0.6,0.3 1.1,0.6 1.5,1.1 0.4,0.5 0.7,1 0.9,1.7 0.2,0.7 0.3,1.4 0.3,2.2 v 9 h -3.4 v -9 c 0,-0.9 -0.2,-1.5 -0.6,-2 -0.4,-0.5 -1,-0.7 -1.8,-0.7 -0.6,0 -1.1,0.1 -1.7,0.4 -0.6,0.3 -1,0.6 -1.5,1.1 v 10.3 h -3.3 z"
   id="path306" />
			<path
   class="st0"
   d="m 642.5,340.9 c 0.6,0 1.2,0.1 1.7,0.2 0.5,0.1 1,0.3 1.5,0.5 h 4.1 v 1.3 c 0,0.2 -0.1,0.4 -0.2,0.5 -0.1,0.1 -0.3,0.2 -0.6,0.2 l -1.3,0.2 c 0.1,0.2 0.2,0.5 0.2,0.8 0,0.3 0.1,0.5 0.1,0.8 0,0.7 -0.1,1.3 -0.4,1.9 -0.3,0.6 -0.7,1 -1.2,1.4 -0.5,0.4 -1.1,0.7 -1.8,0.9 -0.7,0.2 -1.4,0.3 -2.2,0.3 -0.5,0 -1.1,-0.1 -1.6,-0.2 -0.4,0.3 -0.7,0.6 -0.7,0.9 0,0.3 0.1,0.5 0.4,0.6 0.3,0.1 0.6,0.2 1,0.3 0.4,0.1 0.9,0.1 1.5,0.1 0.6,0 1.1,0 1.7,0.1 0.6,0 1.1,0.1 1.7,0.2 0.6,0.1 1,0.3 1.5,0.5 0.4,0.2 0.8,0.6 1,1 0.2,0.4 0.4,1 0.4,1.7 0,0.6 -0.2,1.2 -0.5,1.8 -0.3,0.6 -0.8,1.1 -1.3,1.6 -0.6,0.5 -1.3,0.8 -2.2,1.1 -0.8,0.3 -1.8,0.4 -2.9,0.4 -1.1,0 -2,-0.1 -2.8,-0.3 -0.8,-0.2 -1.5,-0.5 -2,-0.8 -0.5,-0.3 -0.9,-0.7 -1.2,-1.2 -0.3,-0.5 -0.4,-0.9 -0.4,-1.4 0,-0.7 0.2,-1.2 0.6,-1.7 0.4,-0.5 1,-0.8 1.7,-1.1 -0.4,-0.2 -0.6,-0.5 -0.8,-0.8 -0.2,-0.3 -0.3,-0.7 -0.3,-1.3 0,-0.2 0,-0.4 0.1,-0.7 0.1,-0.3 0.2,-0.4 0.3,-0.7 0.2,-0.2 0.3,-0.4 0.6,-0.6 0.3,-0.2 0.5,-0.4 0.8,-0.5 -0.7,-0.4 -1.3,-0.9 -1.7,-1.5 -0.4,-0.6 -0.6,-1.4 -0.6,-2.3 0,-0.7 0.1,-1.3 0.4,-1.9 0.3,-0.6 0.7,-1.1 1.2,-1.5 0.5,-0.4 1.1,-0.7 1.8,-0.9 0.8,0.2 1.5,0.1 2.4,0.1 z m 3.7,15 c 0,-0.3 -0.1,-0.5 -0.2,-0.7 -0.2,-0.2 -0.4,-0.3 -0.7,-0.4 -0.3,-0.1 -0.6,-0.2 -1,-0.2 -0.4,0 -0.8,-0.1 -1.2,-0.1 -0.4,0 -0.9,0 -1.3,0 -0.5,0 -0.9,-0.1 -1.3,-0.2 -0.4,0.2 -0.7,0.5 -0.9,0.8 -0.2,0.3 -0.4,0.6 -0.4,1 0,0.2 0.1,0.5 0.2,0.7 0.1,0.2 0.3,0.4 0.6,0.6 0.3,0.2 0.6,0.3 1.1,0.4 0.4,0.1 1,0.1 1.6,0.1 0.6,0 1.2,0 1.6,-0.1 0.5,-0.1 0.8,-0.2 1.1,-0.4 0.3,-0.2 0.5,-0.4 0.7,-0.6 0,-0.3 0.1,-0.6 0.1,-0.9 z m -3.7,-8 c 0.4,0 0.8,-0.1 1.1,-0.2 0.3,-0.1 0.6,-0.3 0.8,-0.5 0.2,-0.2 0.4,-0.4 0.5,-0.7 0.1,-0.3 0.2,-0.6 0.2,-0.9 0,-0.7 -0.2,-1.3 -0.6,-1.7 -0.4,-0.4 -1,-0.6 -1.9,-0.6 -0.8,0 -1.5,0.2 -1.9,0.6 -0.4,0.4 -0.6,1 -0.6,1.7 0,0.3 0.1,0.6 0.2,0.9 0.1,0.3 0.3,0.5 0.5,0.7 0.2,0.2 0.5,0.4 0.8,0.5 0.1,0.1 0.4,0.2 0.9,0.2 z"
   id="path308" />
			<path
   class="st0"
   d="m 668.3,355.3 h -1.5 c -0.3,0 -0.6,0 -0.8,-0.1 -0.2,-0.1 -0.3,-0.3 -0.4,-0.6 l -0.3,-1 c -0.4,0.3 -0.7,0.6 -1.1,0.9 -0.3,0.2 -0.7,0.4 -1.1,0.6 -0.4,0.2 -0.8,0.3 -1.2,0.4 -0.4,0.1 -0.9,0.1 -1.4,0.1 -0.6,0 -1.2,-0.1 -1.7,-0.2 -0.5,-0.2 -0.9,-0.4 -1.3,-0.7 -0.4,-0.3 -0.6,-0.7 -0.9,-1.2 -0.2,-0.5 -0.3,-1 -0.3,-1.7 0,-0.5 0.1,-1.1 0.4,-1.6 0.3,-0.5 0.8,-1 1.4,-1.4 0.7,-0.4 1.5,-0.8 2.6,-1 1.1,-0.3 2.4,-0.4 4.1,-0.4 v -0.8 c 0,-1 -0.2,-1.7 -0.6,-2.1 -0.4,-0.5 -1,-0.7 -1.8,-0.7 -0.6,0 -1,0.1 -1.4,0.2 -0.4,0.1 -0.7,0.3 -1,0.4 -0.3,0.2 -0.5,0.3 -0.8,0.4 -0.2,0.1 -0.5,0.2 -0.8,0.2 -0.2,0 -0.4,-0.1 -0.6,-0.2 -0.2,-0.1 -0.3,-0.3 -0.4,-0.4 l -0.6,-1.1 c 1.6,-1.5 3.6,-2.2 5.9,-2.2 0.8,0 1.6,0.1 2.2,0.4 0.7,0.3 1.2,0.7 1.7,1.1 0.5,0.5 0.8,1.1 1,1.7 0.2,0.7 0.4,1.4 0.4,2.2 v 8.8 z m -6.6,-2.1 c 0.4,0 0.7,0 1,-0.1 0.3,-0.1 0.6,-0.2 0.8,-0.3 0.3,-0.1 0.5,-0.3 0.8,-0.5 0.3,-0.2 0.5,-0.4 0.7,-0.7 v -2.4 c -1,0 -1.8,0.1 -2.5,0.2 -0.7,0.1 -1.2,0.3 -1.6,0.5 -0.4,0.2 -0.7,0.4 -0.9,0.7 -0.2,0.3 -0.3,0.5 -0.3,0.8 0,0.6 0.2,1 0.5,1.3 0.4,0.4 0.9,0.5 1.5,0.5 z"
   id="path310" />
			<path
   class="st0"
   d="m 671.7,355.3 v -14.2 h 2.1 c 0.4,0 0.7,0.2 0.9,0.6 l 0.2,1.1 c 0.3,-0.3 0.6,-0.6 0.9,-0.8 0.3,-0.2 0.7,-0.4 1,-0.6 0.4,-0.2 0.7,-0.3 1.1,-0.4 0.4,-0.1 0.8,-0.1 1.3,-0.1 0.8,0 1.5,0.1 2.1,0.4 0.6,0.3 1.1,0.6 1.5,1.1 0.4,0.5 0.7,1 0.9,1.7 0.2,0.7 0.3,1.4 0.3,2.2 v 9 h -3.4 v -9 c 0,-0.9 -0.2,-1.5 -0.6,-2 -0.4,-0.5 -1,-0.7 -1.8,-0.7 -0.6,0 -1.1,0.1 -1.7,0.4 -0.6,0.3 -1,0.6 -1.5,1.1 v 10.3 h -3.3 z"
   id="path312" />
			<path
   class="st0"
   d="m 697.4,355.3 c -0.4,0 -0.7,-0.2 -0.9,-0.6 l -0.3,-1.4 c -0.3,0.3 -0.6,0.6 -0.9,0.9 -0.3,0.3 -0.7,0.5 -1,0.7 -0.4,0.2 -0.8,0.3 -1.2,0.4 -0.4,0.1 -0.9,0.2 -1.4,0.2 -0.8,0 -1.5,-0.2 -2.1,-0.5 -0.6,-0.3 -1.2,-0.8 -1.7,-1.4 -0.5,-0.6 -0.8,-1.4 -1.1,-2.3 -0.3,-0.9 -0.4,-1.9 -0.4,-3.1 0,-1.1 0.1,-2 0.4,-2.9 0.3,-0.9 0.7,-1.7 1.2,-2.4 0.5,-0.7 1.2,-1.2 1.9,-1.6 0.7,-0.4 1.6,-0.6 2.5,-0.6 0.8,0 1.5,0.1 2,0.4 0.5,0.3 1.1,0.6 1.5,1 v -7.5 h 3.4 v 20.6 h -1.9 z m -4.6,-2.5 c 0.7,0 1.3,-0.1 1.8,-0.4 0.5,-0.3 1,-0.7 1.4,-1.3 v -6.4 c -0.4,-0.5 -0.8,-0.8 -1.3,-1 -0.5,-0.2 -0.9,-0.3 -1.5,-0.3 -0.5,0 -1,0.1 -1.4,0.3 -0.4,0.2 -0.8,0.5 -1.1,0.9 -0.3,0.4 -0.5,0.9 -0.7,1.5 -0.2,0.6 -0.2,1.3 -0.2,2.1 0,0.8 0.1,1.5 0.2,2.1 0.1,0.6 0.3,1 0.6,1.4 0.3,0.4 0.6,0.6 0.9,0.8 0.5,0.2 0.9,0.3 1.3,0.3 z"
   id="path314" />
			<path
   class="st0"
   d="m 708.6,355.3 v -20.6 h 3.4 v 8.1 c 0.6,-0.6 1.2,-1.1 1.9,-1.4 0.7,-0.4 1.5,-0.5 2.5,-0.5 0.8,0 1.5,0.2 2.1,0.5 0.6,0.3 1.2,0.8 1.7,1.4 0.5,0.6 0.8,1.4 1.1,2.3 0.3,0.9 0.4,1.9 0.4,3.1 0,1.1 -0.1,2 -0.4,2.9 -0.3,0.9 -0.7,1.7 -1.2,2.4 -0.5,0.7 -1.2,1.2 -1.9,1.6 -0.8,0.4 -1.6,0.6 -2.5,0.6 -0.4,0 -0.8,0 -1.2,-0.1 -0.4,-0.1 -0.7,-0.2 -1,-0.4 -0.3,-0.2 -0.6,-0.3 -0.8,-0.6 -0.3,-0.2 -0.5,-0.5 -0.7,-0.8 l -0.2,1 c -0.1,0.2 -0.1,0.4 -0.3,0.5 -0.1,0.1 -0.3,0.2 -0.5,0.2 h -2.4 z m 6.6,-11.7 c -0.7,0 -1.3,0.1 -1.8,0.4 -0.5,0.3 -1,0.7 -1.4,1.3 v 6.4 c 0.4,0.5 0.8,0.8 1.3,1 0.5,0.2 1,0.3 1.5,0.3 0.5,0 1,-0.1 1.4,-0.3 0.4,-0.2 0.8,-0.5 1.1,-0.9 0.3,-0.4 0.5,-0.9 0.7,-1.5 0.2,-0.6 0.2,-1.3 0.2,-2.1 0,-0.8 -0.1,-1.5 -0.2,-2.1 -0.1,-0.6 -0.3,-1 -0.6,-1.4 -0.3,-0.4 -0.6,-0.6 -0.9,-0.8 -0.4,-0.3 -0.8,-0.3 -1.3,-0.3 z"
   id="path316" />
			<path
   class="st0"
   d="m 730.2,340.9 c 0.9,0 1.7,0.1 2.5,0.4 0.8,0.3 1.4,0.7 1.9,1.3 0.5,0.5 1,1.2 1.3,2 0.3,0.8 0.5,1.7 0.5,2.7 0,0.3 0,0.5 0,0.6 0,0.2 -0.1,0.3 -0.1,0.4 -0.1,0.1 -0.1,0.2 -0.2,0.2 -0.1,0 -0.2,0.1 -0.4,0.1 h -8.8 c 0.1,1.5 0.5,2.5 1.2,3.2 0.7,0.7 1.6,1 2.7,1 0.6,0 1,-0.1 1.4,-0.2 0.4,-0.1 0.8,-0.3 1.1,-0.4 0.3,-0.1 0.6,-0.3 0.8,-0.4 0.2,-0.1 0.4,-0.2 0.7,-0.2 0.1,0 0.3,0 0.4,0.1 0.1,0.1 0.2,0.1 0.3,0.2 l 1,1.2 c -0.4,0.4 -0.8,0.8 -1.3,1.1 -0.5,0.3 -1,0.5 -1.5,0.7 -0.5,0.2 -1,0.3 -1.6,0.4 -0.6,0.1 -1,0.1 -1.5,0.1 -1,0 -1.9,-0.2 -2.8,-0.5 -0.9,-0.3 -1.6,-0.8 -2.2,-1.5 -0.6,-0.6 -1.1,-1.4 -1.5,-2.4 -0.4,-1 -0.5,-2 -0.5,-3.3 0,-1 0.2,-1.9 0.5,-2.7 0.3,-0.8 0.8,-1.6 1.3,-2.2 0.5,-0.6 1.3,-1.1 2.1,-1.5 0.6,-0.2 1.6,-0.4 2.7,-0.4 z m 0,2.4 c -1,0 -1.8,0.3 -2.3,0.8 -0.6,0.6 -0.9,1.4 -1.1,2.4 h 6.4 c 0,-0.4 -0.1,-0.9 -0.2,-1.3 -0.1,-0.4 -0.3,-0.7 -0.6,-1 -0.2,-0.3 -0.6,-0.5 -0.9,-0.7 -0.3,-0.1 -0.8,-0.2 -1.3,-0.2 z"
   id="path318" />
			<path
   class="st0"
   d="m 744.1,359.2 c -0.1,0.2 -0.2,0.4 -0.4,0.5 -0.2,0.1 -0.4,0.2 -0.7,0.2 h -2.5 l 2.7,-5.7 -5.7,-13.1 h 3 c 0.3,0 0.5,0.1 0.6,0.2 0.1,0.1 0.3,0.3 0.3,0.4 l 3,7.4 c 0.1,0.2 0.2,0.5 0.3,0.7 0.1,0.3 0.1,0.5 0.2,0.8 0.1,-0.3 0.2,-0.5 0.2,-0.8 0,-0.3 0.2,-0.5 0.3,-0.8 l 2.8,-7.3 c 0.1,-0.2 0.2,-0.3 0.4,-0.5 0.2,-0.1 0.4,-0.2 0.6,-0.2 h 2.7 z"
   id="path320" />
			<path
   class="st0"
   d="m 759.9,340.9 c 1.1,0 2,0.2 2.9,0.5 0.9,0.3 1.6,0.8 2.2,1.5 0.6,0.6 1.1,1.4 1.4,2.3 0.3,0.9 0.5,1.9 0.5,3 0,1.1 -0.2,2.1 -0.5,3 -0.3,0.9 -0.8,1.7 -1.4,2.3 -0.6,0.6 -1.3,1.1 -2.2,1.5 -0.9,0.3 -1.8,0.5 -2.9,0.5 -1.1,0 -2,-0.2 -2.9,-0.5 -0.9,-0.3 -1.6,-0.8 -2.2,-1.5 -0.6,-0.7 -1.1,-1.4 -1.4,-2.3 -0.3,-0.9 -0.5,-1.9 -0.5,-3 0,-1.1 0.2,-2.1 0.5,-3 0.3,-0.9 0.8,-1.7 1.4,-2.3 0.6,-0.6 1.4,-1.1 2.2,-1.5 0.9,-0.3 1.8,-0.5 2.9,-0.5 z m 0,12 c 1.2,0 2.1,-0.4 2.6,-1.2 0.6,-0.8 0.9,-2 0.9,-3.5 0,-1.5 -0.3,-2.7 -0.9,-3.5 -0.6,-0.8 -1.4,-1.2 -2.6,-1.2 -1.2,0 -2.1,0.4 -2.7,1.2 -0.6,0.8 -0.9,2 -0.9,3.5 0,1.5 0.3,2.7 0.9,3.5 0.6,0.8 1.5,1.2 2.7,1.2 z"
   id="path322" />
			<path
   class="st0"
   d="m 769.6,355.3 v -14.2 h 2.1 c 0.4,0 0.7,0.2 0.9,0.6 l 0.2,1.1 c 0.3,-0.3 0.6,-0.6 0.9,-0.8 0.3,-0.2 0.7,-0.4 1,-0.6 0.4,-0.2 0.7,-0.3 1.1,-0.4 0.4,-0.1 0.8,-0.1 1.3,-0.1 0.8,0 1.5,0.1 2.1,0.4 0.6,0.3 1.1,0.6 1.5,1.1 0.4,0.5 0.7,1 0.9,1.7 0.2,0.7 0.3,1.4 0.3,2.2 v 9 h -3.4 v -9 c 0,-0.9 -0.2,-1.5 -0.6,-2 -0.4,-0.5 -1,-0.7 -1.8,-0.7 -0.6,0 -1.1,0.1 -1.7,0.4 -0.6,0.3 -1,0.6 -1.5,1.1 v 10.3 h -3.3 z"
   id="path324" />
			<path
   class="st0"
   d="m 795.3,355.3 c -0.4,0 -0.7,-0.2 -0.9,-0.6 l -0.3,-1.4 c -0.3,0.3 -0.6,0.6 -0.9,0.9 -0.3,0.3 -0.7,0.5 -1,0.7 -0.4,0.2 -0.8,0.3 -1.2,0.4 -0.4,0.1 -0.9,0.2 -1.4,0.2 -0.8,0 -1.5,-0.2 -2.1,-0.5 -0.6,-0.3 -1.2,-0.8 -1.7,-1.4 -0.5,-0.6 -0.8,-1.4 -1.1,-2.3 -0.3,-0.9 -0.4,-1.9 -0.4,-3.1 0,-1.1 0.1,-2 0.4,-2.9 0.3,-0.9 0.7,-1.7 1.2,-2.4 0.5,-0.7 1.2,-1.2 1.9,-1.6 0.7,-0.4 1.6,-0.6 2.5,-0.6 0.8,0 1.5,0.1 2,0.4 0.5,0.3 1.1,0.6 1.5,1 v -7.5 h 3.4 v 20.6 h -1.9 z m -4.6,-2.5 c 0.7,0 1.3,-0.1 1.8,-0.4 0.5,-0.3 1,-0.7 1.4,-1.3 v -6.4 c -0.4,-0.5 -0.8,-0.8 -1.3,-1 -0.5,-0.2 -0.9,-0.3 -1.5,-0.3 -0.5,0 -1,0.1 -1.4,0.3 -0.4,0.2 -0.8,0.5 -1.1,0.9 -0.3,0.4 -0.5,0.9 -0.7,1.5 -0.2,0.6 -0.2,1.3 -0.2,2.1 0,0.8 0.1,1.5 0.2,2.1 0.1,0.6 0.3,1 0.6,1.4 0.3,0.4 0.6,0.6 0.9,0.8 0.5,0.2 0.9,0.3 1.3,0.3 z"
   id="path326" />
		</g>
	</g>
	<g
   id="g334">
		<path
   class="st0"
   d="M 336.6,329.7 307,298.4 c -4.3,6 -10.4,10.7 -17.5,13.2 l 0.1,0.1 c -0.7,0.3 -1.5,0.5 -2.3,0.8 -2.8,0.9 -6.1,1.3 -9.9,1.3 -1.2,0 -2.3,-0.1 -3.5,-0.2 -6.2,-0.6 -11.3,-2.9 -15.3,-6.9 -4.7,-4.7 -7.4,-12.1 -8.1,-22.2 h 11.9 30.7 18 c 0.3,0 0.5,0 0.8,-0.1 h 1.1 3.6 v -9 -3.2 h -0.1 c -0.3,-5.8 -1.3,-11 -3.1,-15.7 -2.1,-5.5 -5,-10.2 -8.8,-14 -3.8,-3.8 -8.2,-6.7 -13.4,-8.7 -5.2,-2 -10.9,-3 -17.1,-3 -7.3,0 -13.9,1.3 -19.8,3.8 -2.6,1.1 -4.9,2.4 -7.1,3.9 l -12.6,-12.6 h 76.9 c 6.2,0 11.3,5 11.3,11.3 V 300 l 17.7,19 v -95.9 c 0,-8.2 -6.6,-14.9 -14.9,-14.9 h -96.1 -7.4 c -13.3,0 -19.9,16 -10.5,25.4 l 7.7,7.7 v 0 l 10.2,10.2 3.3,3.3 c -0.9,1.8 -1.8,3.7 -2.5,5.7 -2.2,5.9 -3.3,12.2 -3.3,18.9 0,8.6 1.2,16.2 3.7,22.7 2.5,6.5 5.9,12 10.2,16.5 4.3,4.4 9.4,7.8 15.3,10.1 5.9,2.3 12.2,3.4 19,3.4 3.4,0 7,-0.3 10.7,-0.8 3.7,-0.5 7.3,-1.4 10.8,-2.6 2.3,-0.8 4.6,-1.8 6.8,-3 l 11.3,11.3 h -84.3 c -6.2,0 -11.3,-5 -11.3,-11.3 v -54.5 -16.9 l -13.7,-13.6 c -1.7,-1.7 -3,-3.6 -4,-5.7 v 12.9 91.9 c 0,8.2 6.6,14.9 14.9,14.9 h 109.3 c 13.1,0 19.8,-15.6 10.9,-25 z m -78.1,-75.9 c 0.7,-0.7 1.4,-1.2 2.1,-1.8 3.7,-2.7 8.3,-4.1 14.1,-4.1 3.5,0 6.6,0.6 9.2,1.8 2.6,1.2 4.8,2.8 6.5,4.8 1.7,2 3,4.4 3.8,7.1 0.8,2.7 1.2,5.6 1.2,8.7 H 278.9 251 c 1.1,-7.1 3.6,-12.6 7.5,-16.5 z"
   id="path332" />
	</g>
</g>
</svg>
